<svg width="24" height="24" viewBox="0 0 24 24" fill="none" xmlns="http://www.w3.org/2000/svg">
<path d="M21.75 18.0183C21.54 18.0181 21.3324 17.9739 21.1406 17.8884C21.096 17.8686 21.0535 17.8444 21.0136 17.8162L17.1366 15.0872C16.9399 14.9488 16.7795 14.7651 16.6687 14.5517C16.5579 14.3383 16.5001 14.1014 16.5 13.8609V10.1391C16.5001 9.89861 16.5579 9.66169 16.6687 9.44828C16.7795 9.23487 16.9399 9.05122 17.1366 8.91281L21.0136 6.18375C21.0535 6.15555 21.096 6.13137 21.1406 6.11156C21.369 6.01003 21.6191 5.96717 21.8683 5.98688C22.1174 6.00658 22.3577 6.08824 22.5673 6.22441C22.7769 6.36059 22.9491 6.54697 23.0683 6.76663C23.1875 6.98629 23.25 7.23226 23.25 7.48219V16.5178C23.25 16.9156 23.092 17.2972 22.8107 17.5785C22.5294 17.8598 22.1478 18.0178 21.75 18.0178V18.0183ZM12.5625 18.75H3.9375C3.09239 18.7491 2.28214 18.413 1.68456 17.8154C1.08697 17.2179 0.750869 16.4076 0.75 15.5625V8.4375C0.750869 7.59239 1.08697 6.78214 1.68456 6.18456C2.28214 5.58697 3.09239 5.25087 3.9375 5.25H12.585C13.4241 5.25099 14.2286 5.58477 14.8219 6.1781C15.4152 6.77144 15.749 7.57589 15.75 8.415V15.5625C15.7491 16.4076 15.413 17.2179 14.8154 17.8154C14.2179 18.413 13.4076 18.7491 12.5625 18.75V18.75Z" fill="white"/>
</svg>
