<svg width="24" height="24" viewBox="0 0 24 24" fill="none" xmlns="http://www.w3.org/2000/svg">
<path d="M15.75 8.415C15.75 7.57559 15.4165 6.77056 14.823 6.17701C14.2294 5.58345 13.4244 5.25 12.585 5.25H8.8725C8.83543 5.25006 8.79922 5.26111 8.76843 5.28175C8.73764 5.30238 8.71366 5.33168 8.69951 5.36594C8.68537 5.4002 8.68169 5.43789 8.68895 5.47423C8.69622 5.51058 8.71409 5.54396 8.74031 5.57016L15.4298 12.2597C15.456 12.2859 15.4894 12.3038 15.5258 12.311C15.5621 12.3183 15.5998 12.3146 15.6341 12.3005C15.6683 12.2863 15.6976 12.2624 15.7183 12.2316C15.7389 12.2008 15.7499 12.1646 15.75 12.1275V8.415ZM0.75 8.4375V15.5625C0.75 16.4079 1.08582 17.2186 1.6836 17.8164C2.28137 18.4142 3.09212 18.75 3.9375 18.75H12.5625C13.2942 18.7507 14.0037 18.4983 14.5706 18.0356C14.5916 18.0192 14.6088 17.9984 14.6211 17.9748C14.6334 17.9511 14.6405 17.9251 14.642 17.8985C14.6434 17.8719 14.6392 17.8453 14.6296 17.8204C14.6199 17.7956 14.6051 17.773 14.5861 17.7544L2.55047 5.71875C2.52106 5.68923 2.48265 5.67034 2.44131 5.66508C2.39997 5.65982 2.35806 5.66847 2.32219 5.68969C1.84349 5.97108 1.44661 6.37265 1.17085 6.85461C0.895086 7.33658 0.750014 7.88222 0.75 8.4375V8.4375ZM21.75 18.0183C21.54 18.0181 21.3324 17.9739 21.1406 17.8884C21.096 17.8686 21.0535 17.8444 21.0136 17.8162L17.1366 15.0872C16.9399 14.9488 16.7795 14.7651 16.6687 14.5517C16.5579 14.3383 16.5001 14.1014 16.5 13.8609V10.1391C16.5001 9.89861 16.5579 9.66169 16.6687 9.44828C16.7795 9.23487 16.9399 9.05122 17.1366 8.91281L21.0136 6.18375C21.0535 6.15555 21.096 6.13137 21.1406 6.11156C21.369 6.01003 21.6191 5.96717 21.8683 5.98688C22.1174 6.00658 22.3577 6.08824 22.5673 6.22441C22.7769 6.36059 22.9491 6.54697 23.0683 6.76663C23.1875 6.98629 23.25 7.23226 23.25 7.48219V16.5178C23.25 16.9156 23.092 17.2972 22.8107 17.5785C22.5294 17.8598 22.1478 18.0178 21.75 18.0178V18.0183Z" fill="white"/>
<path fill-rule="evenodd" clip-rule="evenodd" d="M3.21967 3.21967C3.51256 2.92678 3.98744 2.92678 4.28033 3.21967L20.0303 18.9697C20.3232 19.2626 20.3232 19.7374 20.0303 20.0303C19.7374 20.3232 19.2626 20.3232 18.9697 20.0303L3.21967 4.28033C2.92678 3.98744 2.92678 3.51256 3.21967 3.21967Z" fill="white"/>
</svg>
