<svg width="24" height="24" viewBox="0 0 24 24" fill="none" xmlns="http://www.w3.org/2000/svg">
    <path fill-rule="evenodd" clip-rule="evenodd" d="M2.10156 11.9996C2.10156 6.53199 6.53394 2.09961 12.0016 2.09961C17.4692 2.09961 21.9016 6.53199 21.9016 11.9996C21.9016 17.4672 17.4692 21.8996 12.0016 21.8996C6.53394 21.8996 2.10156 17.4672 2.10156 11.9996ZM13.0016 16.4996C13.0016 17.0519 12.5538 17.4996 12.0016 17.4996C11.4493 17.4996 11.0016 17.0519 11.0016 16.4996C11.0016 15.9473 11.4493 15.4996 12.0016 15.4996C12.5538 15.4996 13.0016 15.9473 13.0016 16.4996ZM13.5265 6.93831C13.0102 6.69527 12.4386 6.58076 11.8662 6.60214C11.2938 6.62351 10.7328 6.78036 10.2375 7.06239C9.7418 7.34461 9.32482 7.74506 9.03469 8.23187C8.74411 8.71941 8.5928 9.27393 8.60195 9.84045L10.4017 9.81138C10.3981 9.58663 10.4576 9.3603 10.5809 9.15341C10.7046 8.94579 10.8905 8.76187 11.1281 8.62662C11.3659 8.4912 11.6435 8.41171 11.9334 8.40088C12.2233 8.39005 12.5085 8.44855 12.76 8.56691C13.0112 8.68516 13.2154 8.85665 13.3591 9.0571C13.5024 9.25687 13.5821 9.48007 13.5984 9.70469C13.6147 9.92911 13.568 10.1569 13.4575 10.3676C13.3476 10.5771 13.1759 10.7665 12.9509 10.9113C12.4038 11.2471 11.9426 11.7004 11.6099 12.2402C11.2752 12.7834 11.0817 13.3968 11.0506 14.0304L11.0495 14.0524V14.3746H12.8495V14.0988C12.8684 13.7822 12.9668 13.4693 13.1424 13.1844C13.3219 12.893 13.5786 12.637 13.8974 12.4424L13.9049 12.4378L13.9123 12.4331C14.393 12.1267 14.7882 11.7055 15.0514 11.2038C15.315 10.7013 15.4348 10.1393 15.3936 9.57409C15.3525 9.00909 15.1529 8.46977 14.822 8.00827C14.4916 7.54745 14.0431 7.18146 13.5265 6.93831Z" fill="#0066FF"/>
    </svg>
    