<svg width="24" height="24" viewBox="0 0 24 24" fill="none" xmlns="http://www.w3.org/2000/svg">
    <path fill-rule="evenodd" clip-rule="evenodd" d="M4.49999 1.93945L21.3106 18.7501L20.25 19.8108L3.43933 3.00011L4.49999 1.93945Z" fill="#00BF40"/>
    <path d="M17.25 9.00002V11.25C17.2501 11.6516 17.204 12.0519 17.1127 12.443L18.3117 13.6406C18.6022 12.8771 18.7507 12.0669 18.75 11.25V9.00002H17.25ZM12.75 20.25V17.9583C13.6874 17.854 14.5922 17.5533 15.4055 17.0756L14.2969 15.968C13.4966 16.3555 12.611 16.5337 11.7231 16.4858C10.8351 16.438 9.97386 16.1656 9.21986 15.6942C8.46585 15.2228 7.84376 14.5679 7.4118 13.7906C6.97984 13.0134 6.75214 12.1392 6.75 11.25V9.00002H5.25V11.25C5.25 14.7188 7.87969 17.5838 11.25 17.9583V20.25H8.25V21.75H15.75V20.25H12.75ZM15.75 11.0799V6.00002C15.75 3.89721 14.1028 2.25002 12 2.25002C11.3467 2.24768 10.7042 2.41674 10.1367 2.74032C9.56912 3.0639 9.09637 3.53069 8.76562 4.09409" fill="#00BF40"/>
    <path d="M8.25 9.91992V11.2029C8.25068 12.2021 8.64571 13.1606 9.34922 13.8701C9.82908 14.3689 10.4398 14.7224 11.1114 14.8899C11.783 15.0575 12.4882 15.0323 13.1461 14.8174L8.25 9.91992Z" fill="#00BF40"/>
    </svg>
    