<svg width="24" height="24" viewBox="0 0 24 24" fill="none" xmlns="http://www.w3.org/2000/svg">
<path fill-rule="evenodd" clip-rule="evenodd" d="M6.75 9V11.25C6.75 14.1358 9.11421 16.5 12 16.5C14.8858 16.5 17.25 14.1358 17.25 11.25V9H18.75V11.25C18.75 14.7108 16.1143 17.5826 12.75 17.9584V20.25H15.75V21.75H8.25V20.25H11.25V17.9584C7.88568 17.5826 5.25 14.7108 5.25 11.25V9H6.75Z" fill="#00BF40"/>
<path d="M12 15C11.505 14.9989 11.0153 14.8983 10.56 14.7042C10.1046 14.5102 9.6929 14.2266 9.34925 13.8703C8.64573 13.1608 8.2507 12.2023 8.25003 11.2032V6.00003C8.24811 5.50703 8.34379 5.01853 8.53157 4.5627C8.71934 4.10686 8.99549 3.6927 9.34409 3.34409C9.6927 2.99549 10.1069 2.71934 10.5627 2.53157C11.0185 2.34379 11.507 2.24811 12 2.25003C14.1028 2.25003 15.75 3.89722 15.75 6.00003V11.2032C15.75 13.2966 14.0677 15 12 15Z" fill="#00BF40"/>
</svg>
