<svg width="24" height="24" viewBox="0 0 24 24" fill="none" xmlns="http://www.w3.org/2000/svg">
    <path fill-rule="evenodd" clip-rule="evenodd" d="M21.504 12.2258C21.504 11.524 21.4413 10.8486 21.3236 10.2007H12V14.0298H17.3284C17.0985 15.2673 16.4011 16.3167 15.3528 17.0185V19.5023H18.5516C20.4238 17.7786 21.504 15.2409 21.504 12.2258Z" fill="#3D82F0"/>
    <path fill-rule="evenodd" clip-rule="evenodd" d="M12.0001 21.9004C14.6731 21.9004 16.9138 21.0138 18.5517 19.5023L15.3529 17.0174C14.4663 17.6114 13.3322 17.9623 12.0001 17.9623C9.42173 17.9623 7.23933 16.221 6.46053 13.8813H3.15283V16.4465C4.78193 19.6817 8.13033 21.9004 12.0001 21.9004Z" fill="#31A752"/>
    <path fill-rule="evenodd" clip-rule="evenodd" d="M6.4605 13.8814C6.2625 13.2874 6.1503 12.6527 6.1503 12.0004C6.1503 11.3481 6.2625 10.7134 6.4605 10.1194V7.5542H3.1528C2.4829 8.8907 2.1001 10.4032 2.1001 12.0004C2.1001 13.5976 2.4829 15.1101 3.1528 16.4466L6.4605 13.8814Z" fill="#F9BA00"/>
    <path fill-rule="evenodd" clip-rule="evenodd" d="M12.0001 6.0381C13.4532 6.0381 14.7589 6.5375 15.7841 7.5187L18.6243 4.6796C16.9094 3.0813 14.6687 2.1001 12.0001 2.1001C8.13033 2.1001 4.78193 4.3188 3.15283 7.555L6.46053 10.1191C7.23933 7.7794 9.42173 6.0381 12.0001 6.0381Z" fill="#E64234"/>
    </svg>
    