<svg width="24" height="25" viewBox="0 0 24 25" fill="none" xmlns="http://www.w3.org/2000/svg">
    <g opacity="0.2">
    <path fill-rule="evenodd" clip-rule="evenodd" d="M20.9 15.5004L20.9 18.9307C20.9 19.185 20.9001 19.4271 20.8834 19.631C20.8652 19.8535 20.8229 20.1086 20.6929 20.3635C20.5108 20.721 20.2201 21.0117 19.8626 21.1939C19.6076 21.3238 19.3525 21.3662 19.1301 21.3843C18.9262 21.401 18.6841 21.401 18.4298 21.401H5.57022C5.31592 21.401 5.07384 21.401 4.8699 21.3843C4.64749 21.3662 4.39238 21.3238 4.1374 21.1939C3.77989 21.0117 3.48923 20.721 3.30707 20.3635C3.17715 20.1086 3.13476 19.8535 3.11659 19.631C3.09993 19.4271 3.09995 19.185 3.09998 18.9307V15.5004H4.89999V19.5006C4.89999 19.5559 4.94476 19.6006 4.99999 19.6006H19C19.0552 19.6006 19.1 19.5559 19.1 19.5006V15.5004H20.9Z" fill="#2E2F33" fill-opacity="0.88"/>
    <path d="M16.9054 9.11778C16.5647 9.47974 15.9951 9.497 15.6332 9.15633L12.9 6.58393V16.0011C12.9 16.4982 12.497 16.9011 12 16.9011C11.5029 16.9011 11.1 16.4982 11.1 16.0011V6.58393L8.36681 9.15633C8.00485 9.497 7.43526 9.47974 7.0946 9.11778C6.75393 8.75582 6.77119 8.18624 7.13315 7.84557L11.3831 3.84557C11.7297 3.51941 12.2703 3.51941 12.6168 3.84557L16.8668 7.84557C17.2288 8.18624 17.246 8.75582 16.9054 9.11778Z" fill="#2E2F33" fill-opacity="0.88"/>
    </g>
    </svg>
    