<svg width="20" height="16" viewBox="0 0 20 16" fill="none" xmlns="http://www.w3.org/2000/svg">
    <path fill-rule="evenodd" clip-rule="evenodd" d="M10.0004 2.60039C7.01804 2.60039 4.60039 5.01805 4.60039 8.00039C4.60039 10.9827 7.01804 13.4004 10.0004 13.4004C12.9827 13.4004 15.4003 10.9827 15.4003 8.00039C15.4003 5.01805 12.9827 2.60039 10.0004 2.60039ZM3.40039 8.00039C3.40039 4.35531 6.3553 1.40039 10.0004 1.40039C13.6454 1.40039 16.6003 4.35531 16.6003 8.00039C16.6003 11.6455 13.6454 14.6004 10.0004 14.6004C6.3553 14.6004 3.40039 11.6455 3.40039 8.00039Z" fill="#2E2F33" fill-opacity="0.88"/>
    <path d="M10.667 11.0004C10.667 11.3686 10.3686 11.6671 10.0004 11.6671C9.63218 11.6671 9.3337 11.3686 9.3337 11.0004C9.3337 10.6322 9.63218 10.3337 10.0004 10.3337C10.3686 10.3337 10.667 10.6322 10.667 11.0004Z" fill="#2E2F33" fill-opacity="0.88"/>
    <path fill-rule="evenodd" clip-rule="evenodd" d="M9.91014 4.40208C10.2917 4.38782 10.6728 4.46417 11.017 4.62619C11.3614 4.78829 11.6604 5.03229 11.8806 5.3395C12.1012 5.64716 12.2343 6.00671 12.2617 6.38338C12.2892 6.76017 12.2093 7.13485 12.0336 7.46983C11.8581 7.80431 11.5946 8.08515 11.2742 8.2894L11.2693 8.29255L11.2643 8.29559C11.0517 8.42532 10.8806 8.59601 10.7609 8.79027C10.6439 8.98022 10.5783 9.18876 10.5656 9.39987V9.58372H9.36565V9.36895L9.36637 9.35422C9.38714 8.93184 9.51615 8.5229 9.73929 8.16077C9.96103 7.8009 10.2685 7.49869 10.6333 7.27487C10.7832 7.17832 10.8977 7.05205 10.971 6.91236C11.0446 6.77191 11.0758 6.62006 11.0649 6.47044C11.054 6.3207 11.0009 6.1719 10.9054 6.03872C10.8096 5.90508 10.6735 5.79076 10.506 5.71193C10.3383 5.63302 10.1482 5.59402 9.95493 5.60124C9.76165 5.60846 9.57661 5.66145 9.41804 5.75173C9.25968 5.8419 9.13575 5.96451 9.05326 6.10293C8.97105 6.24085 8.93139 6.39174 8.93381 6.54157L7.73397 6.56095C7.72787 6.18327 7.82874 5.81359 8.02246 5.48856C8.21588 5.16403 8.49386 4.89706 8.8243 4.70891C9.15454 4.52089 9.52853 4.41633 9.91014 4.40208Z" fill="#2E2F33" fill-opacity="0.88"/>
    </svg>
    