<svg width="18" height="18" viewBox="0 0 18 18" fill="none" xmlns="http://www.w3.org/2000/svg">
<mask id="mask0_1479_19247" style="mask-type:alpha" maskUnits="userSpaceOnUse" x="0" y="0" width="18" height="18">
<path fill-rule="evenodd" clip-rule="evenodd" d="M11.0341 12.5337L10.1784 11.6781C9.81801 11.8368 9.41948 11.925 9.00036 11.925C7.38493 11.925 6.07536 10.6154 6.07536 8.99999C6.07536 8.58087 6.16351 8.18234 6.32229 7.82193L4.93327 6.43291C3.97655 7.089 3.18628 7.97013 2.63877 8.99999C3.84853 11.2755 6.2435 12.825 9.00036 12.825C9.70664 12.825 10.3892 12.7233 11.0341 12.5337ZM12.3889 11.9794L6.16454 5.75499C7.03479 5.38171 7.99344 5.17501 9.00036 5.17501C11.7572 5.17501 14.1522 6.72445 15.362 8.99999C14.6898 10.2644 13.6517 11.3046 12.3889 11.9794ZM13.3795 12.9699C14.8267 12.1052 15.9969 10.8249 16.7254 9.29385C16.8139 9.1079 16.8139 8.89209 16.7254 8.70614C15.3522 5.82 12.4093 3.82501 9.00036 3.82501C7.61492 3.82501 6.30644 4.15454 5.14903 4.73948L2.82996 2.42041L1.87536 3.375L3.96481 5.46445C2.81967 6.30031 1.89016 7.4139 1.27534 8.70614C1.18687 8.89209 1.18687 9.1079 1.27534 9.29385C2.6485 12.18 5.59146 14.175 9.00036 14.175C10.0926 14.175 11.137 13.9702 12.0972 13.5969L14.073 15.5726L15.0275 14.618L13.3795 12.9699ZM7.42704 8.92668L9.07367 10.5733C9.04937 10.5744 9.02493 10.575 9.00036 10.575C8.13052 10.575 7.42536 9.86983 7.42536 8.99999C7.42536 8.97542 7.42593 8.95098 7.42704 8.92668ZM11.8673 9.58268C11.9054 9.39438 11.9254 9.19951 11.9254 8.99999C11.9254 7.38455 10.6158 6.07499 9.00036 6.07499C8.80084 6.07499 8.60597 6.09496 8.41767 6.13303L11.8673 9.58268Z" fill="#F7F7F8"/>
</mask>
<g mask="url(#mask0_1479_19247)">
<rect width="18" height="18" fill="#37383C" fill-opacity="0.16"/>
</g>
</svg>
