<svg width="20" height="20" viewBox="0 0 20 20" fill="none" xmlns="http://www.w3.org/2000/svg">
    <mask id="mask0_1550_20675" style="mask-type:alpha" maskUnits="userSpaceOnUse" x="0" y="0" width="20" height="20">
    <path fill-rule="evenodd" clip-rule="evenodd" d="M14.2882 8.02236L8.89706 13.5769L5.71181 10.2951L6.78818 9.25037L8.89706 11.4231L13.2118 6.97764L14.2882 8.02236Z" fill="#F7F7F8"/>
    <path fill-rule="evenodd" clip-rule="evenodd" d="M10 3.25C6.27208 3.25 3.25 6.27208 3.25 10C3.25 13.7279 6.27208 16.75 10 16.75C13.7279 16.75 16.75 13.7279 16.75 10C16.75 6.27208 13.7279 3.25 10 3.25ZM1.75 10C1.75 5.44365 5.44365 1.75 10 1.75C14.5563 1.75 18.25 5.44365 18.25 10C18.25 14.5563 14.5563 18.25 10 18.25C5.44365 18.25 1.75 14.5563 1.75 10Z" fill="#F7F7F8"/>
    </mask>
    <g mask="url(#mask0_1550_20675)">
    <rect width="20" height="20" fill="#37383C" fill-opacity="0.61"/>
    </g>
    </svg>
    