<svg width="18" height="18" viewBox="0 0 18 18" fill="none" xmlns="http://www.w3.org/2000/svg">
<mask id="mask0_1479_19861" style="mask-type:alpha" maskUnits="userSpaceOnUse" x="0" y="0" width="19" height="18">
<path fill-rule="evenodd" clip-rule="evenodd" d="M2.64268 8.99993C3.85244 6.72439 6.24741 5.17495 9.00428 5.17495C11.7611 5.17495 14.1561 6.72439 15.3659 8.99993C14.1561 11.2755 11.7611 12.8249 9.00428 12.8249C6.24741 12.8249 3.85244 11.2755 2.64268 8.99993ZM16.7293 9.29378C16.8178 9.10784 16.8178 8.89202 16.7293 8.70608C15.3561 5.81994 12.4132 3.82495 9.00428 3.82495C5.59537 3.82495 2.65241 5.81994 1.27924 8.70608C1.19077 8.89202 1.19077 9.10784 1.27924 9.29378C2.65241 12.1799 5.59537 14.1749 9.00428 14.1749C12.4132 14.1749 15.3561 12.1799 16.7293 9.29378ZM7.42928 8.99995C7.42928 8.1301 8.13443 7.42495 9.00428 7.42495C9.87413 7.42495 10.5793 8.1301 10.5793 8.99995C10.5793 9.8698 9.87413 10.575 9.00428 10.575C8.13443 10.575 7.42928 9.8698 7.42928 8.99995ZM9.00428 6.07495C7.38884 6.07495 6.07927 7.38452 6.07927 8.99995C6.07927 10.6154 7.38884 11.925 9.00428 11.925C10.6197 11.925 11.9293 10.6154 11.9293 8.99995C11.9293 7.38452 10.6197 6.07495 9.00428 6.07495Z" fill="#F7F7F8" stroke="#F7F7F8" stroke-width="1.8"/>
</mask>
<g mask="url(#mask0_1479_19861)">
<rect width="18" height="18" fill="#37383C" fill-opacity="0.16"/>
</g>
</svg>
