<svg width="16" height="17" viewBox="0 0 16 17" fill="none" xmlns="http://www.w3.org/2000/svg">
    <path fill-rule="evenodd" clip-rule="evenodd" d="M3.07564 3.57576C3.30995 3.34145 3.68985 3.34145 3.92416 3.57576L7.99988 7.6515L12.0756 3.57576C12.3099 3.34145 12.6898 3.34145 12.9241 3.57576C13.1584 3.81007 13.1584 4.18997 12.9241 4.42429L8.84841 8.50002L12.9241 12.5758C13.1584 12.8101 13.1584 13.19 12.9241 13.4243C12.6898 13.6586 12.3099 13.6586 12.0756 13.4243L7.99988 9.34855L3.92416 13.4243C3.68985 13.6586 3.30995 13.6586 3.07564 13.4243C2.84132 13.19 2.84132 12.8101 3.07564 12.5758L7.15136 8.50002L3.07564 4.42429C2.84132 4.18997 2.84132 3.81007 3.07564 3.57576Z" fill="#37383C" fill-opacity="0.28"/>
    </svg>
    