<svg width="16" height="16" viewBox="0 0 16 16" fill="none" xmlns="http://www.w3.org/2000/svg">
    <mask id="mask0_1871_3832" style="mask-type:alpha" maskUnits="userSpaceOnUse" x="0" y="0" width="16" height="16">
    <path fill-rule="evenodd" clip-rule="evenodd" d="M1.90816 7.57567C1.67384 7.80999 1.67384 8.18988 1.90816 8.4242L6.57482 13.0909C6.80914 13.3252 7.18904 13.3252 7.42335 13.0909C7.65767 12.8566 7.65767 12.4767 7.42335 12.2423L3.78095 8.59994H13.6658C13.9971 8.59994 14.2658 8.33131 14.2658 7.99994C14.2658 7.66856 13.9971 7.39994 13.6658 7.39994L3.78095 7.39994L7.42335 3.75753C7.65767 3.52322 7.65767 3.14332 7.42335 2.909C7.18904 2.67469 6.80914 2.67469 6.57482 2.90901L1.90816 7.57567Z" fill="#F7F7F8"/>
    </mask>
    <g mask="url(#mask0_1871_3832)">
    <rect width="16" height="16" fill="#37383C" fill-opacity="0.61"/>
    </g>
    </svg>
    