<svg width="24" height="24" viewBox="0 0 24 24" fill="none" xmlns="http://www.w3.org/2000/svg">
    <path fill-rule="evenodd" clip-rule="evenodd" d="M2.09961 11.9996C2.09961 6.53199 6.53199 2.09961 11.9996 2.09961C17.4672 2.09961 21.8996 6.53199 21.8996 11.9996C21.8996 17.4672 17.4672 21.8996 11.9996 21.8996C6.53199 21.8996 2.09961 17.4672 2.09961 11.9996ZM12.9996 16.2496C12.9996 16.8019 12.5519 17.2496 11.9996 17.2496C11.4473 17.2496 10.9996 16.8019 10.9996 16.2496C10.9996 15.6973 11.4473 15.2496 11.9996 15.2496C12.5519 15.2496 12.9996 15.6973 12.9996 16.2496ZM11.0996 6.74963V13.7496H12.8996V6.74963H11.0996Z" fill="#0066FF"/>
    </svg>
    